<?xml version="1.0" encoding="utf-8" standalone="no"?><!DOCTYPE svg PUBLIC "-//W3C//DTD SVG 20010904//EN" "http://www.w3.org/TR/2001/REC-SVG-20010904/DTD/svg10.dtd"><svg xmlns="http://www.w3.org/2000/svg" width="427" height="204" xmlns:xlink="http://www.w3.org/1999/xlink"><source><![CDATA[프로그래머->프로그래밍 언어 : 요구사항
컴퓨터 구조-> 프로그래밍 언어 : 제약사항]]></source><desc></desc><defs><marker viewBox="0 0 5 5" markerWidth="5" markerHeight="5" orient="auto" refX="5" refY="2.5" id="markerArrowBlock"><path d="M 0 0 L 5 2.5 L 0 5 z"></path></marker><marker viewBox="0 0 9.6 16" markerWidth="4" markerHeight="16" orient="auto" refX="9.6" refY="8" id="markerArrowOpen"><path d="M 9.6,8 1.92,16 0,13.7 5.76,8 0,2.286 1.92,0 9.6,8 z"></path></marker></defs><g class="title"></g><g class="actor"><path d="M10,20C70.4,16.0 34.0,24.0 110.0,20.0C108.6,47.6 111.4,25.8 110.0,56.0C34.0,52.0 75.0,60.0 10.0,56.0C8.6,25.8 11.4,50.2 10.0,20.0" stroke="#000000" fill="#ffffff" style="stroke-width: 2;"></path><text x="20" y="43" style="font-size: 16px; font-family: danielbd;"><tspan x="20">프로그래머</tspan></text></g><g class="actor"><path d="M10,148C58.3,152.0 50.5,144.0 110.0,148.0C111.4,160.0 108.6,160.7 110.0,184.0C94.0,180.0 86.0,188.0 10.0,184.0C11.4,153.8 8.6,157.3 10.0,148.0" stroke="#000000" fill="#ffffff" style="stroke-width: 2;"></path><text x="20" y="171" style="font-size: 16px; font-family: danielbd;"><tspan x="20">프로그래머</tspan></text></g><path d="M60.0,56.0C63.7,70.7 56.3,78.1 60.0,148.0" stroke="#000000" fill="none" style="stroke-width: 2;"></path><g class="actor"><path d="M130,20C236.4,25.6 247.6,14.4 270.0,20.0C271.4,41.2 268.5,37.6 270.0,56.0C236.4,50.4 247.6,61.6 130.0,56.0C128.6,33.2 131.4,27.6 130.0,20.0" stroke="#000000" fill="#ffffff" style="stroke-width: 2;"></path><text x="140" y="43" style="font-size: 16px; font-family: danielbd;"><tspan x="140">프로그래밍 언어</tspan></text></g><g class="actor"><path d="M130,148C236.4,142.4 247.6,153.6 270.0,148.0C268.5,177.2 271.4,170.1 270.0,184.0C236.4,189.6 192.3,178.4 130.0,184.0C131.4,161.1 128.6,162.5 130.0,148.0" stroke="#000000" fill="#ffffff" style="stroke-width: 2;"></path><text x="140" y="171" style="font-size: 16px; font-family: danielbd;"><tspan x="140">프로그래밍 언어</tspan></text></g><path d="M200.0,56.0C196.3,133.3 203.7,116.3 200.0,148.0" stroke="#000000" fill="none" style="stroke-width: 2;"></path><g class="actor"><path d="M289.984375,20C349.3,15.7 352.8,24.3 398.0,20.0C396.5,50.2 399.4,25.8 398.0,56.0C358.5,60.3 315.9,51.7 290.0,56.0C291.4,30.8 288.5,47.4 290.0,20.0" stroke="#000000" fill="#ffffff" style="stroke-width: 2;"></path><text x="299.984375" y="43" style="font-size: 16px; font-family: danielbd;"><tspan x="299.984375">컴퓨터 구조</tspan></text></g><g class="actor"><path d="M289.984375,148C380.7,152.3 345.5,143.7 398.0,148.0C396.5,157.2 399.4,178.2 398.0,184.0C380.7,179.7 346.7,188.3 290.0,184.0C288.5,175.4 291.4,174.3 290.0,148.0" stroke="#000000" fill="#ffffff" style="stroke-width: 2;"></path><text x="299.984375" y="171" style="font-size: 16px; font-family: danielbd;"><tspan x="299.984375">컴퓨터 구조</tspan></text></g><path d="M344.0,56.0C347.7,133.3 340.3,105.7 344.0,148.0" stroke="#000000" fill="none" style="stroke-width: 2;"></path><g class="signal"><text x="97.99609375" y="86" style="font-size: 16px; font-family: danielbd;"><tspan x="97.99609375">요구사항</tspan></text><path d="M60.0,92.0C106.7,86.4 164.1,97.6 200.0,92.0" stroke="#000000" fill="none" style="stroke-width: 2; marker-end: url(&quot;#markerArrowBlock&quot;);"></path></g><g class="signal"><text x="239.984375" y="122" style="font-size: 16px; font-family: danielbd;"><tspan x="239.984375">제약사항</tspan></text><path d="M344.0,128.0C234.5,133.8 223.0,122.2 200.0,128.0" stroke="#000000" fill="none" style="stroke-width: 2; marker-end: url(&quot;#markerArrowBlock&quot;);"></path></g></svg>